<svg xmlns="http://www.w3.org/2000/svg" width="48" height="48" viewBox="0 0 48 48" fill="none">
  <defs>
    <linearGradient id="bg" x1="0" y1="0" x2="1" y2="1">
      <stop offset="0%" stop-color="#7C4DFF"/>
      <stop offset="100%" stop-color="#6750A4"/>
    </linearGradient>
  </defs>
  <rect x="2" y="2" width="44" height="44" rx="14" fill="url(#bg)"/>
  <path d="M14 20 L10 9 L21 16 Z" fill="#fff"/>
  <path d="M34 20 L38 9 L27 16 Z" fill="#fff"/>
  <ellipse cx="24" cy="25" rx="14" ry="12" fill="#fff"/>
  <ellipse cx="19" cy="25" rx="2.4" ry="3" fill="#6750A4"/>
  <ellipse cx="29" cy="25" rx="2.4" ry="3" fill="#6750A4"/>
  <path d="M22.5 29 L25.5 29 L24 31 Z" fill="#7D5260"/>
  <g transform="translate(20.5 15)"><path d="M3.5 0 C3.8 2.2 5.3 3.2 7 3.5 C5.3 3.8 3.8 5.3 3.5 7 C3.2 5.3 1.7 3.8 0 3.5 C1.7 3.2 3.2 2.2 3.5 0Z" fill="#FFCF5C"/></g>
</svg>
